<?xml version="1.0" encoding="UTF-8" standalone="no"?>
<svg viewBox="0 0 48 48" width="48" height="48" version="1.1" id="svg1183" sodipodi:docname="icons8-javascript.svg"
   xmlns:inkscape="http://www.inkscape.org/namespaces/inkscape"
   xmlns:sodipodi="http://sodipodi.sourceforge.net/DTD/sodipodi-0.dtd" xmlns="http://www.w3.org/2000/svg"
   xmlns:svg="http://www.w3.org/2000/svg">
   <defs id="defs1187" />
   <sodipodi:namedview id="namedview1185" pagecolor="#ffffff" bordercolor="#000000" borderopacity="0.25"
      inkscape:showpageshadow="2" inkscape:pageopacity="0.0" inkscape:pagecheckerboard="0" inkscape:deskcolor="#d1d1d1"
      showgrid="false" />
   <path fill="#ffd600" d="M 6,42 V 6 h 36 v 36 z" id="path1179" />
   <path fill="#000001"
      d="m 29.538,32.947 c 0.692,1.124 1.444,2.201 3.037,2.201 1.338,0 2.04,-0.665 2.04,-1.585 0,-1.101 -0.726,-1.492 -2.198,-2.133 L 31.61,31.086 c -2.329,-0.988 -3.878,-2.226 -3.878,-4.841 0,-2.41 1.845,-4.244 4.728,-4.244 2.053,0 3.528,0.711 4.592,2.573 l -2.514,1.607 c -0.553,-0.988 -1.151,-1.377 -2.078,-1.377 -0.946,0 -1.545,0.597 -1.545,1.377 0,0.964 0.6,1.354 1.985,1.951 l 0.807,0.344 C 36.452,29.645 38,30.839 38,33.523 38,36.415 35.716,38 32.65,38 29.651,38 27.948,36.495 27,34.632 Z m -11.586,0.082 c 0.506,0.906 1.275,1.603 2.381,1.603 1.058,0 1.667,-0.418 1.667,-2.043 V 22 h 3.333 v 11.101 c 0,3.367 -1.953,4.899 -4.805,4.899 -2.577,0 -4.437,-1.746 -5.195,-3.368 z"
      id="path1181" />
</svg>