<?xml version="1.0" encoding="UTF-8" standalone="no"?>
<svg
   width="48"
   height="48"
   stroke="#000000"
   stroke-linecap="round"
   stroke-linejoin="round"
   fill="#ffffff"
   fill-rule="evenodd"
   version="1.1"
   id="svg201"
   sodipodi:docname="sqlite2.svg"
   inkscape:version="1.2.2 (732a01da63, 2022-12-09)"
   xmlns:inkscape="http://www.inkscape.org/namespaces/inkscape"
   xmlns:sodipodi="http://sodipodi.sourceforge.net/DTD/sodipodi-0.dtd"
   xmlns="http://www.w3.org/2000/svg"
   xmlns:svg="http://www.w3.org/2000/svg">
  <sodipodi:namedview
     id="namedview203"
     pagecolor="#ffffff"
     bordercolor="#000000"
     borderopacity="0.25"
     inkscape:showpageshadow="2"
     inkscape:pageopacity="0.0"
     inkscape:pagecheckerboard="0"
     inkscape:deskcolor="#d1d1d1"
     showgrid="false"
     inkscape:zoom="12.490385"
     inkscape:cx="52"
     inkscape:cy="22.537336"
     inkscape:window-width="1920"
     inkscape:window-height="1051"
     inkscape:window-x="-9"
     inkscape:window-y="-9"
     inkscape:window-maximized="1"
     inkscape:current-layer="svg201" />
  <defs
     id="defs189">
    <linearGradient
       x1="18.308504"
       y1="3.4943144"
       x2="18.308504"
       y2="31.195818"
       id="A"
       gradientTransform="scale(0.97318233,1.0275567)"
       gradientUnits="userSpaceOnUse">
      <stop
         stop-color="#97d9f6"
         offset="0%"
         id="stop184" />
      <stop
         stop-color="#0f80cc"
         offset="92.024%"
         id="stop186" />
    </linearGradient>
  </defs>
  <g
     stroke="none"
     fill-rule="nonzero"
     id="g199"
     transform="matrix(0.4615998,0,0,0.4615998,0.08006159,12.16935)">
    <path
       d="m 40.415,20.1281 c -1.3473,0 -2.4408,0.4003 -3.2805,1.196 -0.8397,0.7957 -1.2692,1.8453 -1.2692,3.1243 0,0.6639 0.1074,1.2692 0.3124,1.8257 0.205,0.5565 0.537,1.074 0.9666,1.5377 0.4296,0.4637 1.3083,1.0984 2.6117,1.9527 1.5962,0.9763 2.636,1.7671 3.1437,2.3822 0.4716,0.537 0.7378,1.2235 0.7518,1.938 0,0.9031 -0.2929,1.6207 -0.908,2.1626 -0.6151,0.5419 -1.4303,0.8103 -2.4408,0.8103 -1.0739,0 -1.9527,-0.3759 -2.8021,-1.1228 -0.8494,-0.7469 -1.2057,-1.7427 -1.2204,-2.9875 h -0.4979 v 4.5106 h 0.4979 c 0.1465,-0.4296 0.3613,-0.6444 0.6347,-0.6444 0.1317,0 0.4393,0.0977 0.9763,0.2636 1.1716,0.4198 2.1381,0.62 2.8997,0.62 1.3082,0 2.4213,-0.4589 3.3536,-1.3864 0.9082,-0.8794 1.4133,-2.0945 1.3962,-3.3585 0,-1.0154 -0.3076,-1.9185 -0.9178,-2.7045 -0.6102,-0.786 -1.7866,-1.7085 -3.5538,-2.7581 -1.5133,-0.9128 -2.5043,-1.6597 -2.9583,-2.2358 a 3.027,3.027 0 0 1 -0.6883,-1.9184 2.246,2.246 0 0 1 0.8299,-1.8258 c 0.5516,-0.4539 1.2692,-0.6834 2.1723,-0.6834 1.0154,0 1.855,0.3027 2.5287,0.908 0.6961,0.6646 1.1147,1.568 1.1716,2.5287 h 0.4979 v -3.9053 h -0.4637 c -0.0586,0.1952 -0.1074,0.3271 -0.1562,0.3905 -0.0488,0.0634 -0.1367,0.0879 -0.2685,0.0879 -0.1611,0 -0.4491,-0.0684 -0.8543,-0.1953 -0.8787,-0.2929 -1.6793,-0.4393 -2.4164,-0.4393 z m 16.2558,0 c -1.6402,0 -3.1243,0.3906 -4.4765,1.1619 a 8.543,8.543 0 0 0 -3.2023,3.2121 c -0.7747,1.3236 -1.1809,2.8305 -1.1765,4.3641 -0.0172,2.0385 0.7121,4.0127 2.0503,5.5504 1.3669,1.6207 3.0168,2.6361 4.9207,3.0266 0.4393,0.2295 1.0593,0.8153 1.8745,1.7574 0.9275,1.074 1.6988,1.8453 2.3432,2.3042 0.626,0.4508 1.322,0.7955 2.06,1.0202 a 8.103,8.103 0 0 0 2.3725,0.332 c 1.0349,0 1.9527,-0.1807 2.7825,-0.5516 l -0.1855,-0.4541 c -0.4735,0.1709 -0.9763,0.2539 -1.5133,0.2539 -0.7225,0 -1.4498,-0.2441 -2.1821,-0.7176 -0.7323,-0.4735 -1.6451,-1.3913 -2.7337,-2.7337 l -1.0642,-1.2107 c 2.0894,-0.4051 3.8077,-1.4156 5.1404,-3.0363 1.3112,-1.5448 2.0233,-3.5096 2.0063,-5.5358 a 8.299,8.299 0 0 0 -2.6116,-6.2045 c -1.7379,-1.6842 -3.8712,-2.5385 -6.4047,-2.5385 z m 10.1537,0 0.0244,0.537 c 1.0935,0 1.7086,0.3222 1.8404,0.9666 0.0488,0.2294 0.0732,0.659 0.0781,1.2692 l -0.0097,11.7745 c -0.0098,0.8787 -0.1367,1.4401 -0.3759,1.6841 -0.2392,0.244 -0.6493,0.3906 -1.2399,0.454 l -0.0245,0.537 h 10.886 l 0.2783,-2.6702 h -0.4979 c -0.1465,0.7322 -0.4687,1.2497 -0.9861,1.5425 -0.5174,0.2928 -1.4401,0.4394 -2.7679,0.4394 h -1.0251 c -1.196,0 -1.8843,-0.4296 -2.0698,-1.2985 A 2.73,2.73 0 0 1 70.8812,34.8072 L 70.93,22.896 c 0,-0.8787 0.1123,-1.4645 0.3417,-1.7574 0.2294,-0.2929 0.6492,-0.4491 1.2546,-0.4881 l -0.0244,-0.537 z m -9.978,0.6444 a 5.516,5.516 0 0 1 4.5301,2.2016 c 1.1716,1.4645 1.7477,3.4855 1.7477,6.0386 0,2.4213 -0.5858,4.3544 -1.7574,5.8091 -1.1247,1.4331 -2.8656,2.2438 -4.6864,2.1821 -1.7939,0.0419 -3.4943,-0.7991 -4.5496,-2.2504 -1.1619,-1.5036 -1.7379,-3.4562 -1.7379,-5.858 0,-2.4652 0.5858,-4.3934 1.7574,-5.9165 1.1716,-1.5231 2.7337,-2.2065 4.7059,-2.2065 z m 25.0427,2.5385 c -0.2636,0 -0.4686,0.0878 -0.6199,0.2684 a 0.732,0.732 0 0 0 -0.1465,0.664 c 0.0598,0.2679 0.2119,0.5063 0.4296,0.6736 0.2294,0.1953 0.4784,0.2929 0.742,0.2929 0.2636,0 0.454,-0.0976 0.5955,-0.2929 0.1415,-0.1953 0.1856,-0.4149 0.1319,-0.6736 -0.0537,-0.2587 -0.1953,-0.4882 -0.4101,-0.664 -0.2148,-0.1758 -0.4589,-0.2684 -0.7176,-0.2684 z m 7.176,1.8062 c -0.4491,1.7378 -1.4303,2.6751 -2.929,2.8313 l 0.0196,0.4979 h 1.7573 l -0.0244,5.8677 0.0977,2.0161 c 0.1708,0.8153 0.7078,1.2302 1.5963,1.2302 1.2887,0 2.636,-0.781 4.0517,-2.3578 l -0.4296,-0.3661 c -1.0251,1.0349 -1.9233,1.5523 -2.7142,1.5523 -0.4881,0 -0.781,-0.2782 -0.8982,-0.8299 a 2.097,2.097 0 0 1 -0.0439,-0.4735 l 0.0195,-6.6585 h 2.6849 l -0.0244,-0.7957 h -2.6458 v -2.5287 z m 10.3588,2.2162 c -1.4986,0 -2.7191,0.7323 -3.6612,2.1723 -0.9421,1.44 -1.2351,3.0511 -0.8641,4.8182 a 4.15,4.15 0 0 0 1.3181,2.4018 c 0.6639,0.5662 1.5133,0.8445 2.514,0.8445 0.9373,0 2.2455,-0.2441 2.7923,-0.7176 0.5468,-0.4735 1.0593,-1.2546 1.5279,-2.3139 l -0.3758,-0.3905 c -0.7469,1.3766 -2.2553,2.0698 -3.3976,2.0698 -1.5622,0 -2.5238,-0.8592 -2.929,-2.5678 a 6.245,6.245 0 0 1 -0.1025,-0.698 c 1.855,-0.2929 3.2707,-0.8153 4.2226,-1.5719 0.9519,-0.7566 1.9038,-1.5621 1.7281,-2.4018 a 1.953,1.953 0 0 0 -0.7665,-1.196 c -0.4051,-0.2929 -1.4644,-0.454 -2.0502,-0.454 z m -16.3827,0.0635 -3.2317,0.742 v 0.576 l 1.1228,-0.1464 c 0.537,0 0.8592,0.244 0.9617,0.7322 a 3.95,3.95 0 0 1 0.0635,0.6786 l -0.0342,5.2819 c -0.0098,0.7322 -0.0879,1.1569 -0.2538,1.2838 -0.1659,0.1269 -0.6005,0.1953 -1.2986,0.1953 l -0.0195,0.4979 h 5.1257 l -0.0097,-0.4979 c -0.7128,0 -1.1716,-0.0488 -1.3767,-0.166 -0.2051,-0.1172 -0.3417,-0.3075 -0.4003,-0.6102 -0.0488,-0.2197 -0.0683,-0.5955 -0.0683,-1.1228 l 0.0195,-7.4542 h -0.5858 z m 15.5626,0.9763 c 0.3124,0 0.6151,0.122 0.9177,0.3564 0.3026,0.2344 0.4882,0.4979 0.537,0.781 0.2929,1.4059 -0.9519,2.3725 -3.7588,2.9143 -0.0781,-0.9763 0.0976,-1.9526 0.5516,-2.7922 0.454,-0.8396 1.0349,-1.2693 1.7476,-1.2693 z"
       fill="#003b57"
       id="path191" />
    <path
       d="M 31.1838,1.9685 H 3.3879 C 1.5231,1.9685 0,3.4916 0,5.3563 v 30.6566 c 0,1.8648 1.5231,3.3879 3.3879,3.3879 h 18.306 C 21.484,30.2917 24.5985,12.6153 31.1838,1.9783 Z"
       fill="#0f80cc"
       id="path193" />
    <path
       d="M 30.1733,2.9546 H 3.3879 A 2.392,2.392 0 0 0 0.991,5.3515 v 28.411 C 7.0589,31.434 16.1582,29.4276 22.4555,29.5155 23.7247,22.9009 27.4347,9.989 30.1684,2.9497 Z"
       fill="url(#A)"
       id="path195"
       style="fill:url(#A)" />
    <path
       d="m 37.6666,0.9628 c -1.9527,-1.6988 -4.208,-1.0153 -6.4828,1.0008 l -1.0105,0.9861 c -3.8907,4.1347 -7.5031,11.7793 -8.6258,17.6177 0.4881,0.8885 0.781,2.0161 1.0056,2.929 l 0.1464,0.6053 0.1465,0.6835 c 0,0 -0.0342,-0.1318 -0.1758,-0.5468 L 22.5726,23.9699 A 3.079,3.079 0 0 0 22.514,23.8235 C 22.2602,23.2377 21.5572,21.988 21.2448,21.4461 a 59.336,59.336 0 0 0 -0.6932,2.1675 c 0.8934,1.6304 1.4352,4.4276 1.4352,4.4276 0,0 -0.0488,-0.1806 -0.2734,-0.8152 -0.1952,-0.5614 -1.1911,-2.2944 -1.4254,-2.7045 -0.4003,1.4841 -0.5614,2.4897 -0.4149,2.7338 0.2782,0.4735 0.5467,1.2887 0.781,2.1869 0.3654,1.4861 0.6635,2.9879 0.8934,4.5009 l 0.0341,0.4149 a 41.318,41.318 0 0 0 0.1123,5.033 c 0.1757,2.1137 0.5028,3.9297 0.9275,4.906 l 0.2831,-0.1562 c -0.615,-1.9136 -0.8689,-4.4276 -0.7566,-7.3224 0.166,-4.4277 1.1862,-9.7633 3.0657,-15.3283 3.173,-8.3964 7.5909,-15.1331 11.628,-18.3549 -3.6807,3.3195 -8.66,14.0786 -10.1538,18.062 -1.6695,4.4618 -2.8508,8.6404 -3.5636,12.658 1.2302,-3.7588 5.2087,-5.3698 5.2087,-5.3698 0,0 1.9527,-2.4066 4.2275,-5.8433 l -4.3593,1.1619 -1.4059,0.6248 c 0,0 3.588,-2.187 6.6683,-3.1731 4.2324,-6.6683 8.8455,-16.1435 4.1982,-20.2831"
       fill="#003b57"
       id="path197" />
  </g>
</svg>
